<svg version="1" xmlns="http://www.w3.org/2000/svg" width="682.667" height="682.667" viewBox="0 0 512.000000 512.000000"><path d="M41 1.6C23.1 5.4 10.1 16.9 3.1 34.8L.5 41.5.2 252.2C-.1 483.9-.4 470.6 6 483.6c5.8 11.9 16.4 20.9 29.8 25.6l6.7 2.3h427l6.7-2.3c13.4-4.7 24-13.7 29.8-25.6 6.4-13 6.1.3 5.8-231.4l-.3-210.7-2.6-6.7c-7.1-18.2-20.1-29.4-38.4-33.3C460.2-.7 51-.6 41 1.6zm90 91.3v11.9l-4.7.7c-8.2 1.1-12.1 2.5-15.4 5.2-6.5 5.5-6.3 4.1-6.9 65.8-.5 55.5-.6 56.1-2.8 61.7-2.6 6.5-8.6 12.4-16.3 16l-4.8 2.3 6.5 3.4c8.3 4.3 13.6 10.3 15.8 17.9 1.4 5 1.6 12.6 1.6 54.8 0 51.1.6 60.4 4.2 66.2 2.6 4.3 8.9 7.2 16.9 7.9l5.9.6v24l-8.7-.6c-25.6-1.9-39.2-11.4-44.9-31.3-1.5-5.1-1.8-13.2-2.3-60.9-.7-60.6-.5-59.3-7-64.8-2.1-1.7-4.9-2.9-8.1-3.3l-5-.7V243h3c4 0 9-2.2 11.7-5.1 4.9-5.3 5.3-10.6 5.3-62.5 0-50.1.6-59.5 4.6-68.9 6.8-16.4 20.9-23.7 49.2-25.4 2.2-.1 2.2.1 2.2 11.8zm271.7-9.3c13.6 2.9 23.2 9.4 28.3 19.5 5.3 10.4 5.3 9.7 6 68.4.7 57 .9 59.8 5.1 65.6 2.4 3.4 7.7 5.9 12.3 5.9h3.6v27h-3.3c-5.2 0-11.9 3.9-14 8.1-3 6.2-3.7 18.6-3.7 66.5 0 42.8-.1 46.6-2 53.9-1.1 4.3-3.1 9.7-4.4 12-3.4 5.7-10.8 12.2-17.1 15-6.3 2.8-19.6 5.5-27.1 5.5H381V407.3l6.3-.6c10.3-1 14.4-3.3 18.3-10.7 1.8-3.3 1.9-7.3 2.4-59.5.5-55.4.6-56.1 2.8-61.7 2.8-6.8 8.8-12.6 16.6-15.9l5.3-2.2-6.8-3.4c-4.1-2-8.3-5.1-10.4-7.6-6.9-8-6.8-7.9-7.5-69.7l-.5-55.6-2.5-4.8c-3-5.8-7-8.2-16.3-9.8l-6.4-1.1-.7-6.6c-.3-3.6-.6-9-.6-11.9V81l7.3.6c3.9.3 10.4 1.2 14.4 2zm-211 257.9c5.1 2.6 9.1 7.2 11.2 12.8 1.5 4 1.4 14.1-.2 18-7.8 18.4-33.9 19.3-42.6 1.4-2.3-4.8-2.9-14.6-1-19.4 3.5-9.4 12-15.3 21.9-15.3 4 0 7.1.7 10.7 2.5zm77.5 1.1c12.6 8.9 13.7 28.2 2.2 38.3-15 13.2-38.4 2.6-38.4-17.5 0-9.9 5.3-18.8 13.4-22.6 6.3-2.9 17.4-2.1 22.8 1.8zm75-.1c8.5 6.1 12.6 17.1 9.8 27-.8 2.8-3 6.5-5.7 9.6-15.2 16.8-42.4 4.1-40-18.6.9-9 6.1-16.6 13.7-20 2.4-1 5.8-1.4 10.7-1.2 6.1.2 7.8.7 11.5 3.2z"/></svg>